<svg width="18" height="14" viewBox="0 0 18 14" fill="none" xmlns="http://www.w3.org/2000/svg">
<path d="M17.1339 1.91205C17.186 2.2994 17.1971 2.79446 17.1994 3.48037L9.48737 6.90794C9.17709 7.04584 8.82291 7.04584 8.51263 6.90794L0.800613 3.48037C0.802942 2.79446 0.814012 2.2994 0.86609 1.91205C0.927386 1.45614 1.03199 1.27095 1.15147 1.15147C1.27095 1.03199 1.45614 0.927386 1.91205 0.86609C2.39099 0.801699 3.03457 0.8 4 0.8H14C14.9654 0.8 15.609 0.801699 16.0879 0.86609C16.5439 0.927386 16.729 1.03199 16.8485 1.15147C16.968 1.27095 17.0726 1.45614 17.1339 1.91205ZM0.8 10V5.23101L7.86281 8.37004C8.58679 8.69181 9.4132 8.69181 10.1372 8.37004L17.2 5.23101V10C17.2 10.9654 17.1983 11.609 17.1339 12.0879C17.0726 12.5439 16.968 12.729 16.8485 12.8485C16.729 12.968 16.5439 13.0726 16.0879 13.1339C15.609 13.1983 14.9654 13.2 14 13.2H4C3.03457 13.2 2.39099 13.1983 1.91205 13.1339C1.45614 13.0726 1.27095 12.968 1.15147 12.8485C1.03199 12.729 0.927386 12.5439 0.86609 12.0879C0.801699 11.609 0.8 10.9654 0.8 10Z" stroke="#696F8C" stroke-width="1.6"/>
</svg>
