<svg width="24" height="24" viewBox="0 0 24 24" fill="none" xmlns="http://www.w3.org/2000/svg">
<path fill-rule="evenodd" clip-rule="evenodd" d="M5.51027 16.3275C5.83229 16.8104 6.20877 17.2583 6.63424 17.6615C7.72837 18.6986 9.09958 19.3963 10.582 19.6704C12.0644 19.9445 13.5944 19.7831 14.987 19.2058C16.3796 18.6285 17.575 17.66 18.4287 16.4175C19.2824 15.175 19.7578 13.7118 19.7973 12.2048C19.8368 10.6978 19.4388 9.21162 18.6513 7.92611C17.8639 6.64061 16.7208 5.61083 15.3604 4.96136C14.4597 4.53137 13.4893 4.28028 12.5025 4.21657L12.9463 5.87302C13.5411 5.96488 14.1223 6.1433 14.6711 6.40526C15.7524 6.9215 16.661 7.74005 17.2869 8.76186C17.9129 9.78367 18.2292 10.965 18.1978 12.1628C18.1664 13.3607 17.7886 14.5238 17.11 15.5114C16.4314 16.499 15.4812 17.2689 14.3743 17.7277C13.2673 18.1866 12.0512 18.3149 10.8728 18.0971C9.69454 17.8792 8.6046 17.3246 7.7349 16.5003C7.53104 16.3071 7.34133 16.101 7.16672 15.8836L5.51027 16.3275Z" fill="#696F8C"/>
<path d="M5.91239 4.06647C6.68924 3.47037 7.54796 2.99272 8.46042 2.64739C8.87978 2.48868 9.08946 2.40932 9.28694 2.51053C9.48442 2.61174 9.54649 2.84338 9.67063 3.30667L11.7412 11.0341C11.8632 11.4894 11.9242 11.7171 11.8206 11.8964C11.7171 12.0758 11.4894 12.1368 11.0341 12.2588L3.30667 14.3294C2.84338 14.4535 2.61174 14.5156 2.42535 14.3952C2.23896 14.2747 2.20284 14.0535 2.13061 13.6109C1.97344 12.6481 1.95774 11.6656 2.08555 10.6947C2.25696 9.39275 2.68314 8.13728 3.33975 7C3.99636 5.86272 4.87054 4.8659 5.91239 4.06647Z" stroke="#696F8C" stroke-width="1.6"/>
</svg>
