<svg width="24" height="24" viewBox="0 0 24 24" fill="none" xmlns="http://www.w3.org/2000/svg">
<path d="M2.08169 13.9445C1.55298 12.9941 1.28862 12.5188 1.28862 12C1.28862 11.4812 1.55298 11.0059 2.08169 10.0555L3.67403 7.193L5.35685 4.38274C5.9156 3.44964 6.19498 2.9831 6.64431 2.72367C7.09364 2.46425 7.63737 2.45558 8.72483 2.43824L12 2.386L15.2752 2.43824C16.3626 2.45558 16.9064 2.46425 17.3557 2.72367C17.805 2.9831 18.0844 3.44964 18.6431 4.38274L20.326 7.193L21.9183 10.0555C22.447 11.0059 22.7114 11.4812 22.7114 12C22.7114 12.5188 22.447 12.9941 21.9183 13.9445L20.326 16.807L18.6431 19.6173C18.0844 20.5504 17.805 21.0169 17.3557 21.2763C16.9064 21.5357 16.3626 21.5444 15.2752 21.5618L12 21.614L8.72483 21.5618C7.63737 21.5444 7.09364 21.5357 6.64431 21.2763C6.19498 21.0169 5.91561 20.5504 5.35685 19.6173L3.67403 16.807L2.08169 13.9445Z" stroke="#696F8C" stroke-width="1.6"/>
<circle cx="12" cy="12" r="3" stroke="#696F8C" stroke-width="1.6"/>
</svg>
