<svg width="322" height="284" viewBox="0 0 322 284" fill="none" xmlns="http://www.w3.org/2000/svg">
<path d="M230.891 55.5197L162.871 30.4697L95.5208 55.1897C86.9208 59.3597 79.3809 61.8497 79.3809 70.0697V110.98C79.3809 139.39 86.6409 167.54 101.571 192.39C114.131 213.3 133.591 234.84 163.541 248.53C191.071 239.36 211.621 214.9 224.191 193.99C239.121 169.14 246.381 140.98 246.381 112.58V75.7897C246.371 64.0597 240.321 58.3397 230.891 55.5197Z" fill="#D7D9E4"/>
<path d="M230.891 55.5197L162.871 30.4697L95.5208 55.1897C86.9208 59.3597 79.3809 61.8497 79.3809 70.0697V110.98C79.3809 139.39 86.6409 167.54 101.571 192.39C114.131 213.3 133.591 234.84 163.541 248.53C191.071 239.36 211.621 214.9 224.191 193.99C239.121 169.14 246.381 140.98 246.381 112.58V75.7897C246.371 64.0597 240.321 58.3397 230.891 55.5197Z" fill="#D7D9E4"/>
<path d="M204.41 159.08H191.91V91.0603C191.91 75.0503 178.88 62.0203 162.87 62.0203C146.86 62.0203 133.83 75.0503 133.83 91.0603V159.08H121.33V91.0603C121.33 68.1603 139.96 49.5303 162.86 49.5303C185.76 49.5303 204.39 68.1603 204.39 91.0603V159.08H204.41Z" fill="#4D95E9"/>
<path d="M213.04 200.65H112.71C109.5 200.65 106.9 198.05 106.9 194.84V134.64C106.9 131.43 109.5 128.83 112.71 128.83H213.04C216.25 128.83 218.85 131.43 218.85 134.64V194.84C218.85 198.04 216.25 200.65 213.04 200.65Z" fill="#97D0F1"/>
<g opacity="0.5">
<path d="M172.231 155.381C172.231 150.211 168.041 146.021 162.871 146.021C157.701 146.021 153.511 150.211 153.511 155.381C153.511 159.661 156.401 163.22 160.311 164.34V178.331H165.421V164.34C169.351 163.22 172.231 159.651 172.231 155.381Z" fill="url(#paint0_linear_2636_16257)"/>
</g>
<path d="M112.87 193.83C112.61 193.83 112.41 181.85 112.41 167.08C112.41 152.3 112.62 140.33 112.87 140.33C113.13 140.33 113.33 152.31 113.33 167.08C113.33 181.86 113.13 193.83 112.87 193.83Z" fill="#FAFAFA"/>
<path d="M155.55 167.37C155.52 167.42 155.11 167.22 154.45 166.75C153.79 166.28 152.91 165.47 152.04 164.29C150.29 162 148.7 157.84 149.74 153.35C150.83 148.87 154.12 145.87 156.7 144.61C158.01 143.95 159.16 143.62 159.96 143.49C160.76 143.36 161.21 143.37 161.22 143.43C161.26 143.61 159.45 143.78 157.02 145.19C154.63 146.54 151.65 149.43 150.64 153.57C149.68 157.71 151.05 161.64 152.58 163.92C154.11 166.27 155.66 167.23 155.55 167.37Z" fill="#FAFAFA"/>
<path d="M246.96 232.66C246.96 232.66 247.23 232.28 247.77 231.57C247.91 231.39 248.06 231.19 248.23 230.97C248.38 230.74 248.52 230.47 248.69 230.18C249.02 229.6 249.43 228.95 249.72 228.12C249.88 227.71 250.07 227.29 250.23 226.83C250.36 226.36 250.5 225.87 250.64 225.35C250.81 224.84 250.89 224.28 250.98 223.7C251.06 223.12 251.21 222.52 251.23 221.88C251.5 219.34 251.34 216.38 250.83 213.11C249.82 206.55 247.03 198.82 242.77 190.42C238.52 182 232.66 172.95 225.47 163.52C218.27 154.08 209.62 144.33 199.67 134.54C189.71 124.76 178.44 114.94 165.8 105.63C159.48 100.98 152.81 96.4804 145.78 92.2304C138.76 87.9804 131.35 84.0104 123.54 80.5704C115.73 77.1704 107.49 74.2204 98.8002 72.8104C94.4702 72.1404 90.0002 71.8204 85.6102 72.4904C83.4202 72.8304 81.2602 73.4204 79.2402 74.3404C77.2402 75.3104 75.4102 76.6104 73.8902 78.2504C72.4302 79.9404 71.3502 81.9104 70.6002 84.0104C69.9302 86.1304 69.5702 88.3404 69.4902 90.5504C69.3202 94.9904 70.1502 99.4004 71.3102 103.63C73.6902 112.11 77.5702 119.96 81.8302 127.34C86.1402 134.71 90.9202 141.62 95.9502 148.11C100.97 154.61 106.21 160.73 111.54 166.48C122.23 177.98 133.27 188.06 144.12 196.84C154.98 205.61 165.65 213.1 175.85 219.17C186.04 225.24 195.7 230.03 204.55 233.3C213.38 236.58 221.37 238.46 228 238.72C231.31 238.85 234.27 238.68 236.76 238.12C237.39 238.03 237.97 237.8 238.54 237.66C239.11 237.51 239.65 237.36 240.14 237.13C240.64 236.93 241.11 236.74 241.57 236.56C242.01 236.35 242.4 236.11 242.79 235.9C243.58 235.52 244.18 235.04 244.71 234.64C244.97 234.44 245.23 234.27 245.44 234.09C245.64 233.9 245.82 233.72 245.98 233.57C246.62 232.97 246.96 232.66 246.96 232.66C246.96 232.66 246.64 232.99 246.01 233.63C245.85 233.79 245.67 233.97 245.47 234.16C245.26 234.34 245.01 234.52 244.74 234.72C244.21 235.12 243.61 235.61 242.82 236C242.44 236.21 242.04 236.45 241.6 236.67C241.15 236.86 240.67 237.05 240.17 237.26C239.68 237.49 239.13 237.64 238.56 237.8C237.99 237.95 237.41 238.18 236.77 238.27C234.27 238.85 231.29 239.04 227.97 238.92C221.31 238.69 213.28 236.83 204.42 233.57C195.54 230.32 185.86 225.55 175.64 219.49C165.41 213.42 154.72 205.94 143.83 197.18C132.96 188.4 121.89 178.32 111.17 166.81C105.82 161.05 100.57 154.93 95.5402 148.42C90.5002 141.92 85.7002 134.99 81.3802 127.6C77.1002 120.2 73.2002 112.32 70.8002 103.77C69.6402 99.5104 68.7902 95.0604 68.9602 90.5404C69.0402 88.2804 69.4102 86.0304 70.1002 83.8504C70.8602 81.7004 71.9902 79.6604 73.4902 77.9104C75.0602 76.2104 76.9602 74.8704 79.0102 73.8704C81.0902 72.9304 83.3002 72.3204 85.5302 71.9804C90.0002 71.3004 94.5202 71.6304 98.8802 72.3104C107.64 73.7304 115.91 76.7004 123.75 80.1104C131.58 83.5604 139 87.5404 146.04 91.8104C153.08 96.0704 159.76 100.59 166.09 105.25C178.74 114.58 190.02 124.43 199.98 134.24C209.93 144.06 218.58 153.83 225.77 163.3C232.96 172.76 238.8 181.85 243.04 190.3C247.28 198.73 250.05 206.49 251.04 213.09C251.53 216.38 251.69 219.36 251.4 221.91C251.38 222.55 251.21 223.15 251.13 223.74C251.04 224.32 250.95 224.88 250.77 225.4C250.62 225.92 250.48 226.42 250.35 226.89C250.18 227.35 249.99 227.77 249.82 228.18C249.52 229.01 249.1 229.66 248.76 230.24C248.59 230.52 248.45 230.8 248.29 231.03C248.12 231.25 247.96 231.45 247.82 231.62C247.25 232.31 246.96 232.66 246.96 232.66Z" fill="#2F66F6"/>
<path d="M278.97 155.39C278.97 155.39 278.92 154.93 278.85 154.04C278.83 153.82 278.81 153.57 278.79 153.29C278.75 153.02 278.67 152.72 278.61 152.4C278.47 151.75 278.34 150.99 278.01 150.18C277.86 149.77 277.72 149.33 277.54 148.88C277.32 148.44 277.1 147.98 276.86 147.5C276.64 147.01 276.34 146.53 276.02 146.04C275.69 145.55 275.41 145 275 144.51C273.51 142.43 271.42 140.33 268.86 138.23C263.74 134.01 256.52 130.09 247.75 126.66C238.97 123.21 228.58 120.35 216.93 118.1C205.28 115.85 192.33 114.33 178.39 113.65C164.45 112.98 149.5 113.16 133.87 114.62C126.06 115.36 118.08 116.44 110.01 117.95C101.94 119.45 93.7703 121.42 85.6503 124.05C77.5603 126.72 69.4403 129.99 62.0203 134.73C58.3403 137.11 54.7903 139.85 51.9603 143.27C50.5503 144.98 49.3403 146.86 48.4303 148.89C47.5903 150.95 47.0803 153.14 47.0403 155.37C47.0803 157.6 47.5803 159.8 48.4203 161.85C49.3303 163.88 50.5303 165.76 51.9503 167.47C54.7803 170.9 58.3303 173.63 62.0103 176.02C69.4303 180.76 77.5503 184.04 85.6403 186.71C93.7603 189.34 101.93 191.31 110 192.81C118.07 194.32 126.05 195.4 133.86 196.14C149.49 197.6 164.44 197.78 178.38 197.11C192.32 196.43 205.27 194.91 216.92 192.66C228.57 190.41 238.96 187.55 247.74 184.1C256.51 180.67 263.73 176.75 268.85 172.53C271.41 170.43 273.5 168.33 274.99 166.25C275.4 165.76 275.68 165.21 276.01 164.72C276.33 164.23 276.64 163.75 276.85 163.26C277.09 162.78 277.32 162.32 277.53 161.88C277.71 161.43 277.85 160.99 278 160.58C278.33 159.77 278.46 159.01 278.6 158.36C278.67 158.04 278.74 157.74 278.78 157.47C278.8 157.19 278.82 156.94 278.84 156.72C278.92 155.84 278.97 155.39 278.97 155.39C278.97 155.39 278.96 155.85 278.9 156.74C278.89 156.97 278.87 157.22 278.85 157.49C278.82 157.77 278.74 158.06 278.68 158.39C278.55 159.04 278.43 159.81 278.1 160.63C277.95 161.04 277.82 161.49 277.64 161.94C277.43 162.38 277.2 162.85 276.97 163.33C276.75 163.83 276.45 164.31 276.13 164.81C275.8 165.3 275.52 165.86 275.11 166.35C273.63 168.45 271.53 170.57 268.98 172.69C263.85 176.95 256.63 180.91 247.85 184.37C239.06 187.85 228.66 190.74 217 193.02C205.33 195.3 192.37 196.84 178.41 197.54C164.45 198.23 149.48 198.07 133.82 196.62C125.99 195.88 118 194.81 109.91 193.3C101.82 191.8 93.6303 189.83 85.4803 187.19C77.3603 184.52 69.2103 181.23 61.7303 176.45C58.0203 174.04 54.4303 171.28 51.5503 167.8C50.1103 166.06 48.8803 164.13 47.9503 162.05C47.0903 159.94 46.5703 157.67 46.5303 155.36C46.5703 153.05 47.0903 150.79 47.9603 148.67C48.8903 146.58 50.1303 144.66 51.5703 142.92C54.4603 139.44 58.0503 136.68 61.7503 134.28C69.2303 129.51 77.3803 126.22 85.5003 123.55C93.6403 120.91 101.83 118.94 109.92 117.44C118.01 115.93 126 114.86 133.83 114.12C149.48 112.67 164.46 112.51 178.41 113.2C192.37 113.9 205.33 115.44 217 117.72C228.66 120 239.07 122.89 247.86 126.37C256.64 129.84 263.87 133.79 268.99 138.05C271.55 140.17 273.64 142.29 275.13 144.39C275.54 144.88 275.82 145.44 276.15 145.93C276.47 146.43 276.77 146.91 276.99 147.41C277.23 147.9 277.45 148.36 277.66 148.8C277.84 149.25 277.98 149.7 278.12 150.11C278.45 150.93 278.57 151.69 278.7 152.35C278.76 152.68 278.84 152.97 278.87 153.25C278.89 153.53 278.9 153.78 278.92 154C278.96 154.93 278.97 155.39 278.97 155.39Z" fill="#2F66F6"/>
<path d="M236.56 59.1998C236.56 59.1998 236.17 58.9598 235.42 58.4698C235.23 58.3498 235.02 58.2098 234.79 58.0598C234.55 57.9198 234.27 57.7998 233.97 57.6598C233.37 57.3698 232.69 57.0098 231.85 56.7798C231.43 56.6498 231 56.4898 230.53 56.3598C230.05 56.2598 229.55 56.1598 229.02 56.0498C228.5 55.9198 227.94 55.8698 227.35 55.8198C226.76 55.7798 226.16 55.6698 225.52 55.6898C222.97 55.5898 220.02 55.9598 216.8 56.6998C210.32 58.1598 202.81 61.4698 194.72 66.2998C186.62 71.1198 177.99 77.5898 169.07 85.4098C160.15 93.2398 151.02 102.54 141.94 113.14C132.87 123.75 123.85 135.67 115.43 148.92C111.23 155.55 107.19 162.51 103.44 169.82C99.6801 177.12 96.2301 184.78 93.3401 192.81C90.4901 200.84 88.1101 209.26 87.3101 218.03C86.9401 222.4 86.9301 226.88 87.8901 231.22C88.3801 233.38 89.1201 235.49 90.1701 237.45C91.2801 239.37 92.7001 241.12 94.4401 242.52C96.2301 243.86 98.2701 244.81 100.41 245.4C102.57 245.92 104.8 246.13 107.02 246.06C111.46 245.92 115.8 244.79 119.94 243.35C128.23 240.39 135.8 235.98 142.87 231.22C149.93 226.42 156.49 221.17 162.62 215.71C168.76 210.26 174.5 204.61 179.87 198.89C190.6 187.44 199.9 175.72 207.91 164.3C215.91 152.86 222.64 141.7 228 131.11C233.36 120.52 237.47 110.56 240.12 101.51C242.78 92.4798 244.11 84.3698 243.91 77.7398C243.81 74.4298 243.44 71.4898 242.71 69.0398C242.58 68.4198 242.31 67.8598 242.13 67.2998C241.94 66.7398 241.75 66.2098 241.49 65.7398C241.26 65.2598 241.03 64.7898 240.82 64.3598C240.58 63.9398 240.31 63.5598 240.08 63.1898C239.64 62.4298 239.12 61.8598 238.7 61.3598C238.48 61.1098 238.3 60.8698 238.1 60.6698C237.89 60.4798 237.71 60.3198 237.54 60.1598C236.89 59.5198 236.56 59.1998 236.56 59.1998C236.56 59.1998 236.91 59.4898 237.59 60.0798C237.76 60.2298 237.95 60.3898 238.16 60.5798C238.36 60.7798 238.55 61.0198 238.77 61.2698C239.2 61.7698 239.74 62.3398 240.18 63.0998C240.42 63.4698 240.69 63.8498 240.93 64.2698C241.15 64.7098 241.38 65.1698 241.62 65.6598C241.88 66.1398 242.08 66.6698 242.27 67.2298C242.46 67.7898 242.73 68.3498 242.86 68.9798C243.61 71.4398 244 74.3898 244.12 77.7098C244.35 84.3698 243.04 92.5098 240.41 101.57C237.78 110.65 233.69 120.64 228.34 131.26C222.99 141.88 216.27 153.07 208.27 164.53C200.26 175.98 190.96 187.72 180.22 199.2C174.84 204.93 169.1 210.59 162.95 216.06C156.81 221.54 150.23 226.8 143.16 231.62C136.07 236.4 128.48 240.83 120.12 243.81C115.95 245.27 111.57 246.41 107.04 246.56C104.78 246.63 102.51 246.42 100.29 245.88C98.0901 245.27 95.9801 244.29 94.1301 242.9C92.3301 241.45 90.8601 239.65 89.7201 237.67C88.6401 235.66 87.8801 233.5 87.3901 231.3C86.4101 226.88 86.4301 222.36 86.8001 217.96C87.6101 209.12 90.0101 200.67 92.8701 192.62C95.7701 184.57 99.2301 176.89 103.01 169.58C106.77 162.26 110.82 155.29 115.03 148.65C123.47 135.39 132.52 123.46 141.61 112.85C150.72 102.25 159.88 92.9498 168.83 85.1198C177.78 77.2998 186.44 70.8398 194.57 66.0298C202.69 61.2098 210.24 57.9198 216.75 56.4798C220 55.7598 222.96 55.3998 225.52 55.5198C226.16 55.4998 226.77 55.6198 227.36 55.6598C227.95 55.7098 228.51 55.7698 229.04 55.8998C229.57 56.0098 230.07 56.1198 230.55 56.2198C231.02 56.3598 231.46 56.5198 231.87 56.6598C232.72 56.8998 233.4 57.2798 233.99 57.5698C234.29 57.7198 234.57 57.8498 234.81 57.9898C235.04 58.1498 235.25 58.2898 235.43 58.4198C236.19 58.9298 236.56 59.1998 236.56 59.1998Z" fill="#2F66F6"/>
<path d="M45.5104 203.3C47.1904 204.98 47.1904 207.71 45.5104 209.4C43.8304 211.08 41.1004 211.08 39.4104 209.4C37.7304 207.72 37.7304 204.99 39.4104 203.3C41.1004 201.62 43.8304 201.62 45.5104 203.3Z" fill="#2F66F6"/>
<path d="M288.78 69.6996C288.78 72.0796 286.85 74.0096 284.47 74.0096C282.09 74.0096 280.16 72.0796 280.16 69.6996C280.16 67.3196 282.09 65.3896 284.47 65.3896C286.85 65.3896 288.78 67.3096 288.78 69.6996Z" fill="#2F66F6"/>
<path d="M72.74 217.48C72.74 218.09 72.25 218.58 71.64 218.58C71.03 218.58 70.54 218.09 70.54 217.48C70.54 216.87 71.03 216.38 71.64 216.38C72.25 216.38 72.74 216.87 72.74 217.48Z" fill="#2F66F6"/>
<path d="M96.1307 96.6596C96.1307 97.2696 95.6407 97.7596 95.0307 97.7596C94.4207 97.7596 93.9307 97.2696 93.9307 96.6596C93.9307 96.0496 94.4207 95.5596 95.0307 95.5596C95.6407 95.5596 96.1307 96.0496 96.1307 96.6596Z" fill="#2F66F6"/>
<path d="M267.12 155.39C267.12 156 266.63 156.49 266.02 156.49C265.41 156.49 264.92 156 264.92 155.39C264.92 154.78 265.41 154.29 266.02 154.29C266.63 154.29 267.12 154.78 267.12 155.39Z" fill="#2F66F6"/>
<path d="M282.35 104.3C282.35 104.91 281.86 105.4 281.25 105.4C280.64 105.4 280.15 104.91 280.15 104.3C280.15 103.69 280.64 103.2 281.25 103.2C281.86 103.21 282.35 103.7 282.35 104.3Z" fill="#2F66F6"/>
<defs>
<linearGradient id="paint0_linear_2636_16257" x1="153.518" y1="162.174" x2="172.232" y2="162.174" gradientUnits="userSpaceOnUse">
<stop stop-color="#4D95E9"/>
<stop offset="0.0323" stop-color="#4D95E9"/>
<stop offset="1" stop-color="#4D95E9"/>
</linearGradient>
</defs>
</svg>
