<svg width="24" height="24" viewBox="0 0 24 24" fill="none" xmlns="http://www.w3.org/2000/svg">
<path d="M9.41362 11.1094L12.8749 14.564M8.47436 20.0278C7.22202 21.2778 4.83247 20.9653 3 20.9653C3.93923 19.1364 2.68689 16.7514 3.93923 15.5015C5.19157 14.2515 7.22202 14.2515 8.47436 15.5015C9.7267 16.7514 9.7267 18.7779 8.47436 20.0278ZM12.0905 15.4096L20.4622 6.38555C21.1996 5.59073 21.1758 4.3564 20.4084 3.59045C19.641 2.8245 18.4043 2.80077 17.6079 3.53672L8.56643 11.8923C8.09921 12.3241 7.8656 12.5399 7.72935 12.7702C7.40264 13.3223 7.38949 14.0049 7.6947 14.5691C7.82198 14.8044 8.04711 15.0291 8.49736 15.4785C8.94761 15.9279 9.17273 16.1526 9.40849 16.2796C9.97383 16.5842 10.6577 16.5711 11.2109 16.245C11.4416 16.109 11.6579 15.8759 12.0905 15.4096Z" stroke="#696F8C" stroke-width="1.6" stroke-linecap="round" stroke-linejoin="round"/>
</svg>
