<svg width="40" height="40" viewBox="0 0 40 40" fill="none" xmlns="http://www.w3.org/2000/svg">
<rect width="40" height="40" rx="20" fill="#073040"/>
<g clip-path="url(#clip0_2636_15195)">
<rect width="24" height="24" transform="translate(8 8)" fill="#073040"/>
<path d="M20 21C21.1 21 22 20.1 22 19C22 17.9 21.1 17 20 17C18.9 17 18 17.9 18 19C18 20.1 18.9 21 20 21Z" fill="#00BBFF"/>
<path d="M27 12V9.5C27 8.7 26.3 8 25.5 8C24.7 8 24 8.7 24 9.5V12H23V9.5C23 8.7 22.3 8 21.5 8C20.7 8 20 8.7 20 9.5V12H19V9.5C19 8.7 18.3 8 17.5 8C16.7 8 16 8.7 16 9.5V12H15V9.5C15 8.7 14.3 8 13.5 8C12.7 8 12 8.7 12 9.5V12H8V26H12.3C13.2 29.4 16.3 32 20 32C23.7 32 26.8 29.4 27.7 26H32V12H27ZM30 24H28V16C25.8 16 24 17.8 24 20V23C23 23 22.1 23.4 21.4 24C20 25.3 19.5 27 19.5 27C19.5 27 19 25.7 19.2 24H10V14H30V24Z" fill="#00BBFF"/>
</g>
<defs>
<clipPath id="clip0_2636_15195">
<rect width="24" height="24" fill="white" transform="translate(8 8)"/>
</clipPath>
</defs>
</svg>
