<svg width="24" height="24" viewBox="0 0 24 24" fill="none" xmlns="http://www.w3.org/2000/svg">
<path d="M12.8245 3.15322L19.2082 4.85553C19.6751 4.98005 20 5.40293 20 5.88618V12.3082C20 14.448 18.9306 16.4463 17.1501 17.6333L12.5917 20.6722C12.2334 20.9111 11.7666 20.9111 11.4083 20.6722L6.84992 17.6333C5.06945 16.4463 4 14.448 4 12.3082V5.88618C4 5.40293 4.32489 4.98005 4.79183 4.85553L11.1755 3.15322C11.7157 3.00916 12.2843 3.00916 12.8245 3.15322Z" stroke="#696F8C" stroke-width="1.70667" stroke-linecap="round"/>
<path d="M9.33353 11.4667L11.2783 13.4115C11.3824 13.5156 11.5513 13.5156 11.6554 13.4115L15.2002 9.8667" stroke="#696F8C" stroke-width="1.70667" stroke-linecap="round"/>
</svg>
