<svg width="24" height="24" viewBox="0 0 24 24" fill="none" xmlns="http://www.w3.org/2000/svg">
<path d="M8.23096 12.5386L15.7694 12.5386" stroke="#696F8C" stroke-width="1.72308" stroke-linecap="round"/>
<path d="M8.23096 15.7693L12.5386 15.7693" stroke="#696F8C" stroke-width="1.72308" stroke-linecap="round"/>
<path d="M5 5.43081C5 4.52611 5 4.07376 5.17607 3.72821C5.33094 3.42425 5.57806 3.17713 5.88202 3.02226C6.22757 2.84619 6.67992 2.84619 7.58462 2.84619H12.5448C12.9399 2.84619 13.1375 2.84619 13.3234 2.89082C13.4882 2.9304 13.6458 2.99566 13.7903 3.08423C13.9533 3.18413 14.093 3.32382 14.3724 3.60321L18.243 7.47379C18.5224 7.75317 18.6621 7.89287 18.762 8.05588C18.8505 8.20042 18.9158 8.35799 18.9554 8.52282C19 8.70873 19 8.90628 19 9.30139V18.5693C19 19.474 19 19.9263 18.8239 20.2719C18.6691 20.5758 18.4219 20.8229 18.118 20.9778C17.7724 21.1539 17.3201 21.1539 16.4154 21.1539H7.58462C6.67992 21.1539 6.22757 21.1539 5.88202 20.9778C5.57806 20.8229 5.33094 20.5758 5.17607 20.2719C5 19.9263 5 19.474 5 18.5693V5.43081Z" stroke="#696F8C" stroke-width="1.72308"/>
<path d="M12.5386 2.84619V6.72311C12.5386 7.62781 12.5386 8.08016 12.7146 8.42571C12.8695 8.72967 13.1166 8.97679 13.4206 9.13166C13.7661 9.30773 14.2185 9.30773 15.1232 9.30773H19.0001" stroke="#696F8C" stroke-width="1.72308"/>
</svg>
