<svg width="40" height="40" viewBox="0 0 40 40" fill="none" xmlns="http://www.w3.org/2000/svg">
<rect width="40" height="40" rx="20" fill="#3F301F"/>
<g clip-path="url(#clip0_2636_15166)">
<rect width="24" height="24" transform="translate(8 8)" fill="#3F301F"/>
<path d="M32.0004 16C32.0004 15.4 31.8004 14.8 31.5004 14.3C31.2004 13.8 30.7004 13.4 30.1004 13.2C29.5004 13 28.9004 12.9 28.3004 13.1C27.7004 13.2 27.2004 13.6 26.8004 14L20.0004 11.2V11C20.0004 10.2 19.7004 9.4 19.1004 8.9C18.5004 8.4 17.8004 8 17.0004 8C16.2004 8 15.4004 8.3 14.9004 8.9C14.4004 9.5 14.0004 10.2 14.0004 11C14.0004 11.6 14.2004 12.3 14.6004 12.8L11.7004 17.1C11.5004 17 11.2004 17 11.0004 17C10.4004 17 9.90039 17.2 9.40039 17.5C8.90039 17.8 8.50039 18.3 8.30039 18.8C8.00039 19.3 7.90039 19.9 8.00039 20.4C8.10039 21 8.40039 21.5 8.70039 22C9.10039 22.4 9.60039 22.8 10.1004 22.9C10.7004 23.1 11.2004 23 11.8004 22.9C12.4004 22.7 12.8004 22.4 13.2004 22C13.6004 21.6 13.8004 21 13.9004 20.4L25.5004 17.8L18.3004 24.4C18.0004 24.1 17.5004 24 17.0004 24C16.4004 24 15.7004 24.2 15.2004 24.6C14.7004 25 14.3004 25.5 14.1004 26.1C13.9004 26.8 14.0004 27.4 14.2004 28C14.4004 28.6 14.8004 29.1 15.4004 29.5C15.9004 29.9 16.5004 30 17.2004 30C17.8004 30 18.5004 29.7 19.0004 29.3C19.5004 28.9 19.8004 28.3 20.0004 27.7C20.2004 27.1 20.1004 26.4 19.8004 25.8L27.6004 18.6L26.5004 26C25.8004 26.1 25.2004 26.5 24.7004 27C24.2004 27.6 24.0004 28.2 24.0004 29C24.0004 29.7 24.3004 30.4 24.7004 30.9C25.1004 31.4 25.8004 31.8 26.5004 31.9C27.2004 32 27.9004 31.9 28.5004 31.5C29.1004 31.1 29.6004 30.6 29.8004 29.9C30.0004 29.2 30.0004 28.5 29.8004 27.8C29.5004 27.1 29.0004 26.6 28.4004 26.2L29.5004 18.8C30.2004 18.7 30.8004 18.3 31.3004 17.8C31.8004 17.4 32.0004 16.7 32.0004 16ZM19.2004 13L25.7004 15.7L13.5004 18.4C13.5004 18.3 13.4004 18.3 13.4004 18.2L16.3004 13.9C16.5004 14 16.8004 14 17.0004 14C17.4004 14 17.8004 13.9 18.2004 13.7C18.6004 13.6 18.9004 13.3 19.2004 13Z" fill="#DDA25C"/>
</g>
<defs>
<clipPath id="clip0_2636_15166">
<rect width="24" height="24" fill="white" transform="translate(8 8)"/>
</clipPath>
</defs>
</svg>
