<svg width="24" height="24" viewBox="0 0 24 24" fill="none" xmlns="http://www.w3.org/2000/svg">
<path d="M3.8 9C3.8 8.03457 3.8017 7.39099 3.86609 6.91205C3.92739 6.45614 4.03199 6.27095 4.15147 6.15147C4.27095 6.03199 4.45614 5.92739 4.91205 5.86609C5.39099 5.8017 6.03457 5.8 7 5.8H17C17.9654 5.8 18.609 5.8017 19.0879 5.86609C19.5439 5.92739 19.729 6.03199 19.8485 6.15147C19.968 6.27095 20.0726 6.45614 20.1339 6.91205C20.1983 7.39099 20.2 8.03457 20.2 9V15C20.2 15.9654 20.1983 16.609 20.1339 17.0879C20.0726 17.5439 19.968 17.729 19.8485 17.8485C19.729 17.968 19.5439 18.0726 19.0879 18.1339C18.609 18.1983 17.9654 18.2 17 18.2H7C6.03457 18.2 5.39099 18.1983 4.91205 18.1339C4.45614 18.0726 4.27095 17.968 4.15147 17.8485C4.03199 17.729 3.92739 17.5439 3.86609 17.0879C3.8017 16.609 3.8 15.9654 3.8 15V9Z" stroke="#696F8C" stroke-width="1.6"/>
</svg>
