<svg width="24" height="24" viewBox="0 0 24 24" fill="none" xmlns="http://www.w3.org/2000/svg">
<path d="M12 4L5 7L12 10L19 7L12 4Z" stroke="#696F8C" stroke-width="1.6" stroke-linejoin="round"/>
<path fill-rule="evenodd" clip-rule="evenodd" d="M7.2795 10.1528L4.68506 11.2647C4.39091 11.3908 4.2002 11.68 4.2002 12.0001C4.2002 12.3201 4.39091 12.6093 4.68506 12.7354L11.6851 15.7354C11.8863 15.8216 12.1141 15.8216 12.3153 15.7354L19.3153 12.7354C19.6095 12.6093 19.8002 12.3201 19.8002 12.0001C19.8002 11.68 19.6095 11.3908 19.3153 11.2647L16.7209 10.1528L14.69 11.0232L16.9693 12.0001L12.0002 14.1297L7.03107 12.0001L9.31037 11.0232L7.2795 10.1528Z" fill="#696F8C"/>
<path fill-rule="evenodd" clip-rule="evenodd" d="M7.2795 15.1528L4.68506 16.2647C4.39091 16.3908 4.2002 16.68 4.2002 17.0001C4.2002 17.3201 4.39091 17.6093 4.68506 17.7354L11.6851 20.7354C11.8863 20.8216 12.1141 20.8216 12.3153 20.7354L19.3153 17.7354C19.6095 17.6093 19.8002 17.3201 19.8002 17.0001C19.8002 16.68 19.6095 16.3908 19.3153 16.2647L16.7209 15.1528L14.69 16.0232L16.9693 17.0001L12.0002 19.1297L7.03107 17.0001L9.31037 16.0232L7.2795 15.1528Z" fill="#696F8C"/>
</svg>
