<svg width="24" height="24" viewBox="0 0 24 24" fill="none" xmlns="http://www.w3.org/2000/svg">
<path d="M8.625 15.375V18.75C8.625 19.8107 8.625 20.341 8.29549 20.6705C7.96599 21 7.43566 21 6.375 21H5.25C4.18934 21 3.65901 21 3.3295 20.6705C3 20.341 3 19.8107 3 18.75L3 17.625C3 16.5643 3 16.034 3.32951 15.7045C3.65901 15.375 4.18934 15.375 5.25 15.375H8.625ZM8.625 15.375L15.375 8.625M15.375 8.625V5.25C15.375 4.18934 15.375 3.65901 15.7045 3.3295C16.034 3 16.5643 3 17.625 3L18.75 3C19.8107 3 20.341 3 20.6705 3.32951C21 3.65901 21 4.18934 21 5.25V6.375C21 7.43566 21 7.96599 20.6705 8.2955C20.341 8.625 19.8107 8.625 18.75 8.625H15.375Z" stroke="#696F8C" stroke-width="1.6"/>
</svg>
