<svg width="40" height="40" viewBox="0 0 40 40" fill="none" xmlns="http://www.w3.org/2000/svg">
<rect width="40" height="40" rx="20" fill="#393D22"/>
<g clip-path="url(#clip0_2636_15175)">
<path d="M20 14C18.3 14 17 12.7 17 11C17 9.3 18.3 8 20 8C21.7 8 23 9.3 23 11C23 12.7 21.7 14 20 14Z" fill="#DDEF71" fill-opacity="0.302"/>
<path d="M20 14C18.3 14 17 12.7 17 11C17 9.3 18.3 8 20 8C21.7 8 23 9.3 23 11C23 12.7 21.7 14 20 14Z" fill="#DDEF71" fill-opacity="0.302"/>
<path d="M12 27V19C12 17.9 12.4 16.8 13 16H10C8.9 16 8 16.9 8 18V24H10V29C10 29.6 10.4 30 11 30H13C13.6 30 14 29.6 14 29V27H12Z" fill="#DDEF71" fill-opacity="0.302"/>
<path d="M12 27V19C12 17.9 12.4 16.8 13 16H10C8.9 16 8 16.9 8 18V24H10V29C10 29.6 10.4 30 11 30H13C13.6 30 14 29.6 14 29V27H12Z" fill="#DDEF71" fill-opacity="0.302"/>
<path d="M22 32H18C17.4 32 17 31.6 17 31V25H14V19C14 17.3 15.3 16 17 16H23C24.7 16 26 17.3 26 19V25H23V31C23 31.6 22.6 32 22 32Z" fill="#DDEF71" fill-opacity="0.302"/>
<path d="M22 32H18C17.4 32 17 31.6 17 31V25H14V19C14 17.3 15.3 16 17 16H23C24.7 16 26 17.3 26 19V25H23V31C23 31.6 22.6 32 22 32Z" fill="#DDEF71" fill-opacity="0.302"/>
<path d="M12 15C10.9 15 10 14.1 10 13C10 11.9 10.9 11 12 11C13.1 11 14 11.9 14 13C14 14.1 13.1 15 12 15Z" fill="#DDEF71" fill-opacity="0.302"/>
<path d="M12 15C10.9 15 10 14.1 10 13C10 11.9 10.9 11 12 11C13.1 11 14 11.9 14 13C14 14.1 13.1 15 12 15Z" fill="#DDEF71" fill-opacity="0.302"/>
<path d="M28 27V19C28 17.9 27.6 16.8 27 16H30C31.1 16 32 16.9 32 18V24H30V29C30 29.6 29.6 30 29 30H27C26.4 30 26 29.6 26 29V27H28Z" fill="#DDEF71" fill-opacity="0.302"/>
<path d="M28 27V19C28 17.9 27.6 16.8 27 16H30C31.1 16 32 16.9 32 18V24H30V29C30 29.6 29.6 30 29 30H27C26.4 30 26 29.6 26 29V27H28Z" fill="#DDEF71" fill-opacity="0.302"/>
<path d="M28 15C29.1 15 30 14.1 30 13C30 11.9 29.1 11 28 11C26.9 11 26 11.9 26 13C26 14.1 26.9 15 28 15Z" fill="#DDEF71" fill-opacity="0.302"/>
<path d="M28 15C29.1 15 30 14.1 30 13C30 11.9 29.1 11 28 11C26.9 11 26 11.9 26 13C26 14.1 26.9 15 28 15Z" fill="#DDEF71" fill-opacity="0.302"/>
</g>
<defs>
<clipPath id="clip0_2636_15175">
<rect width="24" height="24" fill="white" transform="translate(8 8)"/>
</clipPath>
</defs>
</svg>
