<svg width="24" height="24" viewBox="0 0 24 24" fill="none" xmlns="http://www.w3.org/2000/svg">
<path d="M7.0502 7.05044L4 4.00049M16.9497 7.05044L20 4.00049M20 20.0005L16.9497 16.9499M4 20.0005L7.0502 16.9499M18.9999 12.0002C18.9999 15.8662 15.8659 19.0002 11.9999 19.0002C8.13395 19.0002 4.99995 15.8662 4.99995 12.0002C4.99995 8.1342 8.13395 5.00019 11.9999 5.00019C15.8659 5.00019 18.9999 8.1342 18.9999 12.0002ZM13.9999 12.0002C13.9999 13.1048 13.1045 14.0002 11.9999 14.0002C10.8954 14.0002 9.99995 13.1048 9.99995 12.0002C9.99995 10.8956 10.8954 10.0002 11.9999 10.0002C13.1045 10.0002 13.9999 10.8956 13.9999 12.0002Z" stroke="#696F8C" stroke-width="1.6" stroke-linecap="round"/>
</svg>
