<svg width="24" height="24" viewBox="0 0 24 24" fill="none" xmlns="http://www.w3.org/2000/svg">
<circle cx="12" cy="8" r="4" stroke="#696F8C" stroke-width="1.6" stroke-linecap="round"/>
<path fill-rule="evenodd" clip-rule="evenodd" d="M16 15.9386C15.939 15.9147 15.8776 15.8913 15.8158 15.8684C14.2782 15.2998 12.5613 15.0889 10.8772 15.2552C9.19361 15.4214 7.59464 15.9596 6.28562 16.8206C4.97642 17.6817 3.99672 18.8414 3.51923 20.1779C3.37058 20.594 3.58737 21.0518 4.00345 21.2005C4.41952 21.3491 4.87731 21.1323 5.02596 20.7162C5.36751 19.7602 6.09486 18.8611 7.16485 18.1573C8.23503 17.4535 9.58055 16.991 11.0344 16.8475C11.4877 16.8027 11.9428 16.7898 12.394 16.8079C12.7585 16.3176 13.3422 16 14 16L16 16V15.9386Z" fill="#696F8C"/>
<path d="M18 14L18 22" stroke="#696F8C" stroke-width="1.6" stroke-linecap="round"/>
<path d="M22 18L14 18" stroke="#696F8C" stroke-width="1.6" stroke-linecap="round"/>
</svg>
