<svg width="24" height="24" viewBox="0 0 24 24" fill="none" xmlns="http://www.w3.org/2000/svg">
<path fill-rule="evenodd" clip-rule="evenodd" d="M15.9202 12.7988C15.9725 12.5407 16 12.2736 16 12C16 9.79086 14.2091 8 12 8C11.7264 8 11.4593 8.02746 11.2012 8.07977L12.8931 9.77167C13.5002 10.0152 13.9848 10.4998 14.2283 11.1069L15.9202 12.7988ZM9.83719 10.9584C9.68519 11.2735 9.6 11.6268 9.6 12C9.6 13.3255 10.6745 14.4 12 14.4C12.3732 14.4 12.7265 14.3148 13.0416 14.1628L14.212 15.3332C13.5784 15.7545 12.8179 16 12 16C9.79086 16 8 14.2091 8 12C8 11.1821 8.24547 10.4216 8.66676 9.78799L9.83719 10.9584Z" fill="#696F8C"/>
<path fill-rule="evenodd" clip-rule="evenodd" d="M16.3731 17.4944L15.1978 16.3191C14.1883 16.8565 13.1077 17.2 12 17.2C10.4157 17.2 8.88691 16.4974 7.54229 15.53C6.20399 14.5671 5.11563 13.3902 4.42944 12.5571C4.22069 12.3036 4.12122 12.1796 4.06228 12.0808C4.02794 12.0232 4.02895 12.0103 4.02955 12.0026L4.02969 12L4.02955 11.9974C4.02895 11.9896 4.02794 11.9767 4.06229 11.9191C4.12122 11.8203 4.22069 11.6963 4.42944 11.4428C5.09637 10.6331 6.14321 9.49859 7.43019 8.55151L6.28723 7.40855C4.94572 8.42998 3.87494 9.5994 3.19442 10.4256C3.17156 10.4534 3.14819 10.4815 3.1245 10.51C2.80609 10.8928 2.42969 11.3454 2.42969 12C2.42969 12.6545 2.80609 13.1071 3.1245 13.4899L3.1246 13.49C3.14825 13.5185 3.17159 13.5465 3.19442 13.5743C3.92832 14.4653 5.11611 15.7555 6.60787 16.8288C8.09331 17.8975 9.94844 18.8 12 18.8C13.6057 18.8 15.0911 18.2471 16.3731 17.4944ZM8.9596 5.83828C9.90239 5.44812 10.9242 5.19995 12 5.19995C14.0515 5.19995 15.9066 6.10244 17.3921 7.17114C18.8838 8.2444 20.0716 9.53459 20.8055 10.4256C20.8284 10.4534 20.8517 10.4815 20.8754 10.51C21.1938 10.8928 21.5702 11.3454 21.5702 12C21.5702 12.6545 21.1938 13.1071 20.8754 13.4899C20.8517 13.5184 20.8284 13.5465 20.8055 13.5743C20.3213 14.1621 19.6396 14.9237 18.8034 15.6821L17.6706 14.5492C18.4568 13.843 19.1058 13.1212 19.5705 12.5571C19.7792 12.3036 19.8787 12.1796 19.9376 12.0808C19.972 12.0232 19.971 12.0103 19.9704 12.0026L19.9702 12L19.9704 11.9974C19.971 11.9896 19.972 11.9767 19.9376 11.9191C19.8787 11.8203 19.7792 11.6963 19.5705 11.4428C18.8843 10.6097 17.7959 9.43279 16.4576 8.46993C15.113 7.50254 13.5842 6.79995 12 6.79995C11.3918 6.79995 10.7917 6.9035 10.2072 7.08584L8.9596 5.83828Z" fill="#696F8C"/>
<path d="M5 2L21 18" stroke="#696F8C" stroke-width="1.6"/>
</svg>
