<svg width="21" height="24" viewBox="0 0 21 24" fill="none" xmlns="http://www.w3.org/2000/svg">
<g filter="url(#filter0_d_2425_15037)">
<path fill-rule="evenodd" clip-rule="evenodd" d="M10.5 2.72011L10.083 2.95364V3.42205V6.84427V7.55895L9.45126 7.89317L6.55473 9.42562V12.974L9.45126 14.5065L10.083 14.8407V15.5554V16.4887V17.7332V19.4464L10.5 19.6799L10.9172 19.4462V17.7331V16.4887V15.5553V14.8407L11.5489 14.5064L14.4455 12.974V12.4442H16.8188V13.6887V14.4034L16.187 14.7376L13.2905 16.27V16.4887V17.7331V18.1172L18.1267 15.4089V6.99105L13.2905 4.2828V6.12955L16.187 7.662L16.8188 7.99622V8.7109V9.95534H14.4455V9.42558L11.5489 7.89314L10.9172 7.55892V6.84423V3.42201V2.95375L10.5 2.72011ZM0.5 5.6L7.70966 1.56259V1.55538H7.72253L10.5 0L20.5 5.6V16.8L10.5 22.4L0.5 16.8V5.6ZM7.70966 6.12958V4.2827L2.87331 6.99105V15.4089L7.70966 18.1173V17.7332V16.4887V16.2701L4.81313 14.7376L4.18141 14.4034V13.6887V8.71093V7.99625L4.81313 7.66203L7.70966 6.12958Z" fill="#2F66F6"/>
</g>
<defs>
<filter id="filter0_d_2425_15037" x="0.5" y="0" width="20" height="23.4004" filterUnits="userSpaceOnUse" color-interpolation-filters="sRGB">
<feFlood flood-opacity="0" result="BackgroundImageFix"/>
<feColorMatrix in="SourceAlpha" type="matrix" values="0 0 0 0 0 0 0 0 0 0 0 0 0 0 0 0 0 0 127 0" result="hardAlpha"/>
<feOffset dy="1"/>
<feColorMatrix type="matrix" values="0 0 0 0 0.184314 0 0 0 0 0.4 0 0 0 0 0.964706 0 0 0 0.3 0"/>
<feBlend mode="normal" in2="BackgroundImageFix" result="effect1_dropShadow_2425_15037"/>
<feBlend mode="normal" in="SourceGraphic" in2="effect1_dropShadow_2425_15037" result="shape"/>
</filter>
</defs>
</svg>
