<svg width="135" height="29" viewBox="0 0 135 29" fill="none" xmlns="http://www.w3.org/2000/svg">
<g filter="url(#filter0_d_2427_15290)">
<path fill-rule="evenodd" clip-rule="evenodd" d="M12.8208 2.72011L12.0029 3.17816V4.27756V8.55534V9.27002L11.3711 9.60424L7.59255 11.6034V16.3962L11.3711 18.3953L12.0029 18.7295V19.4442V20.6109V22.1665V24.8218L12.8208 25.2799L13.639 24.8217V22.1664V20.6109V19.4442V18.7295L14.2707 18.3953L18.0493 16.3962V15.5553H20.4226V17.1108V17.8255L19.7909 18.1598L16.0123 20.1589V20.6109V22.1664V23.4927L22.9475 19.6089V8.39106L16.0123 4.50734V7.84061L19.7909 9.83972L20.4226 10.1739V10.8886V12.4442H18.0493V11.6033L14.2707 9.6042L13.639 9.26998V8.55529V4.27752V3.17829L12.8208 2.72011ZM2.69411 8.39106L9.62955 4.50721V7.84065L5.85095 9.83977L5.21923 10.174V10.8887V17.1109V17.8256L5.85095 18.1598L9.62955 20.1589V20.6109V22.1665V23.4928L2.69411 19.6089V8.39106ZM25.3208 7L12.8208 0L0.320801 7V21L12.8208 28L25.3208 21V7Z" fill="#2F66F6"/>
</g>
<path d="M33.3208 19.7197L38.8608 5.71969H41.7608L47.2608 19.7197H43.8208L41.1608 12.6197C41.0675 12.3397 40.9608 12.0397 40.8408 11.7197C40.7341 11.3997 40.6275 11.0664 40.5208 10.7197C40.4141 10.373 40.3141 10.0397 40.2208 9.71969C40.1275 9.39969 40.0475 9.09969 39.9808 8.81969L40.5608 8.79969C40.4808 9.13302 40.3941 9.45969 40.3008 9.77969C40.2075 10.0997 40.1075 10.4197 40.0008 10.7397C39.8941 11.0597 39.7808 11.3797 39.6608 11.6997C39.5541 12.0064 39.4408 12.3264 39.3208 12.6597L36.6808 19.7197H33.3208ZM35.9608 17.0397L37.0408 14.4397H43.4408L44.5208 17.0397H35.9608Z" fill="#2F66F6"/>
<path d="M53.2755 19.9197C52.1822 19.9197 51.2022 19.6864 50.3355 19.2197C49.4688 18.7397 48.7888 18.0864 48.2955 17.2597C47.8022 16.4197 47.5555 15.473 47.5555 14.4197C47.5555 13.3397 47.8022 12.3864 48.2955 11.5597C48.7888 10.7197 49.4688 10.0664 50.3355 9.59969C51.2022 9.11969 52.1822 8.87969 53.2755 8.87969C54.3822 8.87969 55.3622 9.11969 56.2155 9.59969C57.0822 10.0664 57.7622 10.7197 58.2555 11.5597C58.7488 12.3864 58.9955 13.3397 58.9955 14.4197C58.9955 15.473 58.7488 16.4197 58.2555 17.2597C57.7622 18.0864 57.0822 18.7397 56.2155 19.2197C55.3622 19.6864 54.3822 19.9197 53.2755 19.9197ZM53.2755 17.1597C53.7555 17.1597 54.1755 17.0397 54.5355 16.7997C54.9088 16.5597 55.2022 16.233 55.4155 15.8197C55.6288 15.4064 55.7288 14.9397 55.7155 14.4197C55.7288 13.873 55.6288 13.393 55.4155 12.9797C55.2022 12.553 54.9088 12.2264 54.5355 11.9997C54.1755 11.7597 53.7555 11.6397 53.2755 11.6397C52.8088 11.6397 52.3888 11.7597 52.0155 11.9997C51.6422 12.2397 51.3488 12.5664 51.1355 12.9797C50.9222 13.393 50.8155 13.873 50.8155 14.4197C50.8155 14.9397 50.9222 15.4064 51.1355 15.8197C51.3488 16.233 51.6422 16.5597 52.0155 16.7997C52.3888 17.0397 52.8088 17.1597 53.2755 17.1597Z" fill="#2F66F6"/>
<path d="M61.2685 19.7197V9.09969H64.4885V19.7197H61.2685ZM62.8885 6.99969C62.2751 6.99969 61.7951 6.85969 61.4485 6.57969C61.1151 6.28635 60.9485 5.87302 60.9485 5.33969C60.9485 4.84635 61.1218 4.44635 61.4685 4.13969C61.8151 3.83302 62.2885 3.67969 62.8885 3.67969C63.4751 3.67969 63.9351 3.82635 64.2685 4.11969C64.6151 4.39969 64.7885 4.80635 64.7885 5.33969C64.7885 5.83302 64.6151 6.23302 64.2685 6.53969C63.9351 6.84635 63.4751 6.99969 62.8885 6.99969Z" fill="#2F66F6"/>
<path d="M74.1942 19.9197C73.1409 19.9197 72.1676 19.7464 71.2742 19.3997C70.3942 19.0397 69.6276 18.5397 68.9742 17.8997C68.3342 17.2464 67.8342 16.4797 67.4742 15.5997C67.1276 14.7064 66.9542 13.733 66.9542 12.6797C66.9542 11.6397 67.1342 10.6797 67.4942 9.79969C67.8676 8.91969 68.3876 8.15302 69.0542 7.49969C69.7209 6.84635 70.5009 6.33969 71.3942 5.97969C72.3009 5.61969 73.2809 5.43969 74.3342 5.43969C75.0009 5.43969 75.6542 5.52635 76.2942 5.69969C76.9342 5.87302 77.5276 6.13302 78.0742 6.47969C78.6342 6.81302 79.1142 7.21969 79.5142 7.69969L77.4142 10.0797C77.0009 9.62635 76.5342 9.27302 76.0142 9.01969C75.5076 8.76635 74.9409 8.63969 74.3142 8.63969C73.7809 8.63969 73.2742 8.73302 72.7942 8.91969C72.3276 9.10635 71.9209 9.37969 71.5742 9.73969C71.2276 10.0997 70.9542 10.5264 70.7542 11.0197C70.5542 11.513 70.4542 12.073 70.4542 12.6997C70.4542 13.313 70.5476 13.873 70.7342 14.3797C70.9342 14.873 71.2142 15.2997 71.5742 15.6597C71.9476 16.0064 72.3876 16.273 72.8942 16.4597C73.4142 16.6464 73.9876 16.7397 74.6142 16.7397C75.0276 16.7397 75.4209 16.6864 75.7942 16.5797C76.1809 16.4597 76.5409 16.293 76.8742 16.0797C77.2076 15.8664 77.4942 15.6264 77.7342 15.3597L79.3942 17.9997C79.0742 18.3597 78.6342 18.6864 78.0742 18.9797C77.5276 19.273 76.9142 19.5064 76.2342 19.6797C75.5676 19.8397 74.8876 19.9197 74.1942 19.9197Z" fill="#2F66F6"/>
<path d="M81.3814 19.7197V9.09969H84.4414L84.5814 12.5597L83.9814 11.8797C84.1548 11.3197 84.4214 10.813 84.7814 10.3597C85.1414 9.90635 85.5681 9.54635 86.0614 9.27969C86.5681 9.01302 87.0948 8.87969 87.6414 8.87969C87.8814 8.87969 88.1014 8.89969 88.3014 8.93969C88.5148 8.96635 88.7014 9.01302 88.8614 9.07969L88.0014 12.6197C87.8548 12.5397 87.6548 12.473 87.4014 12.4197C87.1614 12.353 86.9081 12.3197 86.6414 12.3197C86.3481 12.3197 86.0748 12.373 85.8214 12.4797C85.5814 12.573 85.3681 12.713 85.1814 12.8997C85.0081 13.0864 84.8681 13.3064 84.7614 13.5597C84.6681 13.813 84.6214 14.0997 84.6214 14.4197V19.7197H81.3814Z" fill="#2F66F6"/>
<path d="M91.8625 24.3197L94.2825 18.6397L94.3225 20.3197L89.1825 9.09969H92.8225L95.0625 14.4597C95.1825 14.713 95.2959 14.9997 95.4025 15.3197C95.5092 15.6397 95.5892 15.9397 95.6425 16.2197L95.1825 16.4797C95.2625 16.2797 95.3492 16.0264 95.4425 15.7197C95.5492 15.413 95.6625 15.0864 95.7825 14.7397L97.7425 9.09969H101.403L96.9025 19.7197L95.0825 24.3197H91.8625Z" fill="#2F66F6"/>
<path d="M102.924 24.1197V9.09969H105.984L106.124 11.4397L105.504 11.2597C105.584 10.833 105.804 10.4464 106.164 10.0997C106.538 9.73969 106.998 9.45302 107.544 9.23969C108.091 9.01302 108.671 8.89969 109.284 8.89969C110.191 8.89969 110.998 9.13302 111.704 9.59969C112.411 10.0664 112.964 10.7197 113.364 11.5597C113.778 12.3864 113.984 13.3397 113.984 14.4197C113.984 15.473 113.778 16.413 113.364 17.2397C112.964 18.0664 112.404 18.7197 111.684 19.1997C110.978 19.6664 110.171 19.8997 109.264 19.8997C108.651 19.8997 108.071 19.7864 107.524 19.5597C106.978 19.3197 106.518 19.013 106.144 18.6397C105.771 18.2664 105.531 17.8597 105.424 17.4197L106.164 17.1197V24.1197H102.924ZM108.484 17.1797C108.964 17.1797 109.378 17.0664 109.724 16.8397C110.084 16.613 110.358 16.293 110.544 15.8797C110.744 15.453 110.844 14.9664 110.844 14.4197C110.844 13.8597 110.744 13.373 110.544 12.9597C110.358 12.533 110.084 12.2064 109.724 11.9797C109.378 11.7397 108.964 11.6197 108.484 11.6197C107.991 11.6197 107.564 11.7397 107.204 11.9797C106.844 12.2064 106.564 12.5264 106.364 12.9397C106.164 13.353 106.064 13.8464 106.064 14.4197C106.064 14.9664 106.164 15.453 106.364 15.8797C106.564 16.293 106.844 16.613 107.204 16.8397C107.564 17.0664 107.991 17.1797 108.484 17.1797Z" fill="#2F66F6"/>
<path d="M116.968 19.7197V6.41969H120.188V19.7197H116.968ZM115.088 11.9197V9.09969H122.228V11.9197H115.088Z" fill="#2F66F6"/>
<path d="M128.959 19.9197C127.866 19.9197 126.886 19.6864 126.019 19.2197C125.152 18.7397 124.472 18.0864 123.979 17.2597C123.486 16.4197 123.239 15.473 123.239 14.4197C123.239 13.3397 123.486 12.3864 123.979 11.5597C124.472 10.7197 125.152 10.0664 126.019 9.59969C126.886 9.11969 127.866 8.87969 128.959 8.87969C130.066 8.87969 131.046 9.11969 131.899 9.59969C132.766 10.0664 133.446 10.7197 133.939 11.5597C134.432 12.3864 134.679 13.3397 134.679 14.4197C134.679 15.473 134.432 16.4197 133.939 17.2597C133.446 18.0864 132.766 18.7397 131.899 19.2197C131.046 19.6864 130.066 19.9197 128.959 19.9197ZM128.959 17.1597C129.439 17.1597 129.859 17.0397 130.219 16.7997C130.592 16.5597 130.886 16.233 131.099 15.8197C131.312 15.4064 131.412 14.9397 131.399 14.4197C131.412 13.873 131.312 13.393 131.099 12.9797C130.886 12.553 130.592 12.2264 130.219 11.9997C129.859 11.7597 129.439 11.6397 128.959 11.6397C128.492 11.6397 128.072 11.7597 127.699 11.9997C127.326 12.2397 127.032 12.5664 126.819 12.9797C126.606 13.393 126.499 13.873 126.499 14.4197C126.499 14.9397 126.606 15.4064 126.819 15.8197C127.032 16.233 127.326 16.5597 127.699 16.7997C128.072 17.0397 128.492 17.1597 128.959 17.1597Z" fill="#2F66F6"/>
<defs>
<filter id="filter0_d_2427_15290" x="0.320801" y="0" width="25" height="29" filterUnits="userSpaceOnUse" color-interpolation-filters="sRGB">
<feFlood flood-opacity="0" result="BackgroundImageFix"/>
<feColorMatrix in="SourceAlpha" type="matrix" values="0 0 0 0 0 0 0 0 0 0 0 0 0 0 0 0 0 0 127 0" result="hardAlpha"/>
<feOffset dy="1"/>
<feColorMatrix type="matrix" values="0 0 0 0 0.184314 0 0 0 0 0.4 0 0 0 0 0.964706 0 0 0 0.3 0"/>
<feBlend mode="normal" in2="BackgroundImageFix" result="effect1_dropShadow_2427_15290"/>
<feBlend mode="normal" in="SourceGraphic" in2="effect1_dropShadow_2427_15290" result="shape"/>
</filter>
</defs>
</svg>
