<svg width="21" height="21" viewBox="0 0 21 21" fill="none" xmlns="http://www.w3.org/2000/svg">
<g clip-path="url(#clip0_2425_15209)">
<mask id="mask0_2425_15209" style="mask-type:luminance" maskUnits="userSpaceOnUse" x="0" y="0" width="21" height="21">
<path d="M0.5 0.400391H20.5V20.4004H0.5V0.400391Z" fill="white"/>
</mask>
<g mask="url(#mask0_2425_15209)">
<path d="M10.5 20.4004C16.0231 20.4004 20.5 15.9235 20.5 10.4004C20.5 4.87727 16.0231 0.400391 10.5 0.400391C4.97688 0.400391 0.5 4.87727 0.5 10.4004C0.5 15.9235 4.97688 20.4004 10.5 20.4004Z" fill="url(#paint0_linear_2425_15209)"/>
<path fill-rule="evenodd" clip-rule="evenodd" d="M5.02726 10.2944C7.94226 9.02435 9.886 8.18685 10.8585 7.78185C13.636 6.62748 14.2129 6.42685 14.5891 6.41998C14.6716 6.41873 14.8566 6.43873 14.9766 6.53623C15.0564 6.6054 15.1072 6.70198 15.1191 6.80685C15.1316 6.88498 15.1485 7.06248 15.1354 7.2006C14.9854 8.78185 14.3341 12.6194 14.0029 14.39C13.8623 15.14 13.5866 15.3906 13.3191 15.415C12.7385 15.4687 12.2973 15.0318 11.7348 14.6631C10.8548 14.0862 10.3579 13.7269 9.5035 13.1637C8.516 12.5137 9.156 12.1556 9.7185 11.5712C9.866 11.4187 12.4248 9.09123 12.4748 8.87998C12.4804 8.85373 12.486 8.75498 12.4279 8.7031C12.3691 8.65123 12.2829 8.66873 12.2204 8.6831C12.1329 8.7031 10.7266 9.63248 8.00288 11.4706C7.60351 11.7456 7.24225 11.8787 6.91788 11.8719C6.56163 11.8637 5.87413 11.67 5.36351 11.5037C4.73726 11.3 4.23976 11.1925 4.28288 10.8475C4.30538 10.6669 4.55413 10.4825 5.02726 10.2944Z" fill="white"/>
</g>
</g>
<defs>
<linearGradient id="paint0_linear_2425_15209" x1="1000.5" y1="0.400391" x2="1000.5" y2="1985.57" gradientUnits="userSpaceOnUse">
<stop stop-color="#2AABEE"/>
<stop offset="1" stop-color="#229ED9"/>
</linearGradient>
<clipPath id="clip0_2425_15209">
<rect width="20" height="20" fill="white" transform="translate(0.5 0.400391)"/>
</clipPath>
</defs>
</svg>
